<mxfile host="app.diagrams.net" modified="2023-05-29T07:19:55.053Z" agent="Mozilla/5.0 (Macintosh; Intel Mac OS X 10_15_7) AppleWebKit/537.36 (KHTML, like Gecko) Chrome/113.0.0.0 Safari/537.36" etag="uPexYQzXOQ-9oLEu4yFl" version="21.3.3" type="github">
  <diagram name="第 1 页" id="8pm7guHfuqzJmEeloQiz">
    <mxGraphModel dx="1789" dy="1062" grid="1" gridSize="10" guides="1" tooltips="1" connect="1" arrows="1" fold="1" page="1" pageScale="1" pageWidth="827" pageHeight="1169" math="0" shadow="0">
      <root>
        <mxCell id="0" />
        <mxCell id="1" parent="0" />
        <mxCell id="deVZLYyUcocXkZ-1fiMZ-26" value="" style="edgeStyle=orthogonalEdgeStyle;rounded=0;orthogonalLoop=1;jettySize=auto;html=1;" edge="1" parent="1" source="deVZLYyUcocXkZ-1fiMZ-1" target="deVZLYyUcocXkZ-1fiMZ-4">
          <mxGeometry relative="1" as="geometry" />
        </mxCell>
        <mxCell id="deVZLYyUcocXkZ-1fiMZ-1" value="init()" style="" vertex="1" parent="1">
          <mxGeometry x="350" y="160" width="110" height="50" as="geometry" />
        </mxCell>
        <mxCell id="deVZLYyUcocXkZ-1fiMZ-2" value="" style="endArrow=classic;html=1;rounded=0;strokeColor=#330000;entryX=0.508;entryY=-0.036;entryDx=0;entryDy=0;entryPerimeter=0;exitX=0.49;exitY=1.024;exitDx=0;exitDy=0;exitPerimeter=0;" edge="1" parent="1" source="deVZLYyUcocXkZ-1fiMZ-23" target="deVZLYyUcocXkZ-1fiMZ-1">
          <mxGeometry width="50" height="50" relative="1" as="geometry">
            <mxPoint x="405" y="120" as="sourcePoint" />
            <mxPoint x="685.5" y="332" as="targetPoint" />
          </mxGeometry>
        </mxCell>
        <mxCell id="deVZLYyUcocXkZ-1fiMZ-4" value="config()" style="" vertex="1" parent="1">
          <mxGeometry x="350" y="250" width="110" height="50" as="geometry" />
        </mxCell>
        <mxCell id="deVZLYyUcocXkZ-1fiMZ-5" value="start()" style="" vertex="1" parent="1">
          <mxGeometry x="350" y="340" width="110" height="50" as="geometry" />
        </mxCell>
        <mxCell id="deVZLYyUcocXkZ-1fiMZ-6" value="report()" style="" vertex="1" parent="1">
          <mxGeometry x="350" y="430" width="110" height="50" as="geometry" />
        </mxCell>
        <mxCell id="deVZLYyUcocXkZ-1fiMZ-9" value="" style="endArrow=classic;html=1;rounded=0;exitX=0.5;exitY=1;exitDx=0;exitDy=0;entryX=0.5;entryY=0;entryDx=0;entryDy=0;" edge="1" parent="1" source="deVZLYyUcocXkZ-1fiMZ-4" target="deVZLYyUcocXkZ-1fiMZ-5">
          <mxGeometry width="50" height="50" relative="1" as="geometry">
            <mxPoint x="380" y="510" as="sourcePoint" />
            <mxPoint x="430" y="460" as="targetPoint" />
          </mxGeometry>
        </mxCell>
        <mxCell id="deVZLYyUcocXkZ-1fiMZ-11" value="" style="endArrow=classic;html=1;rounded=0;entryX=0.5;entryY=0;entryDx=0;entryDy=0;exitX=0.5;exitY=1;exitDx=0;exitDy=0;" edge="1" parent="1" source="deVZLYyUcocXkZ-1fiMZ-5" target="deVZLYyUcocXkZ-1fiMZ-6">
          <mxGeometry width="50" height="50" relative="1" as="geometry">
            <mxPoint x="405" y="393" as="sourcePoint" />
            <mxPoint x="405" y="426" as="targetPoint" />
          </mxGeometry>
        </mxCell>
        <mxCell id="deVZLYyUcocXkZ-1fiMZ-13" value="build()" style="" vertex="1" parent="1">
          <mxGeometry x="350" y="520" width="110" height="50" as="geometry" />
        </mxCell>
        <mxCell id="deVZLYyUcocXkZ-1fiMZ-14" value="send()" style="" vertex="1" parent="1">
          <mxGeometry x="350" y="610" width="110" height="50" as="geometry" />
        </mxCell>
        <mxCell id="deVZLYyUcocXkZ-1fiMZ-15" value="" style="endArrow=classic;html=1;rounded=0;entryX=0.5;entryY=0;entryDx=0;entryDy=0;exitX=0.5;exitY=1;exitDx=0;exitDy=0;" edge="1" parent="1" source="deVZLYyUcocXkZ-1fiMZ-13" target="deVZLYyUcocXkZ-1fiMZ-14">
          <mxGeometry width="50" height="50" relative="1" as="geometry">
            <mxPoint x="380" y="740" as="sourcePoint" />
            <mxPoint x="430" y="690" as="targetPoint" />
          </mxGeometry>
        </mxCell>
        <mxCell id="deVZLYyUcocXkZ-1fiMZ-17" value="" style="endArrow=classic;html=1;rounded=0;exitX=0.474;exitY=1.016;exitDx=0;exitDy=0;exitPerimeter=0;entryX=0.48;entryY=0.016;entryDx=0;entryDy=0;entryPerimeter=0;" edge="1" parent="1" source="deVZLYyUcocXkZ-1fiMZ-6" target="deVZLYyUcocXkZ-1fiMZ-13">
          <mxGeometry width="50" height="50" relative="1" as="geometry">
            <mxPoint x="380" y="720" as="sourcePoint" />
            <mxPoint x="430" y="670" as="targetPoint" />
          </mxGeometry>
        </mxCell>
        <mxCell id="deVZLYyUcocXkZ-1fiMZ-19" value="destory()" style="" vertex="1" parent="1">
          <mxGeometry x="350" y="695" width="110" height="50" as="geometry" />
        </mxCell>
        <mxCell id="deVZLYyUcocXkZ-1fiMZ-20" value="" style="endArrow=classic;html=1;rounded=0;exitX=0.492;exitY=1.03;exitDx=0;exitDy=0;exitPerimeter=0;entryX=0.492;entryY=-0.037;entryDx=0;entryDy=0;entryPerimeter=0;" edge="1" parent="1" source="deVZLYyUcocXkZ-1fiMZ-14" target="deVZLYyUcocXkZ-1fiMZ-19">
          <mxGeometry width="50" height="50" relative="1" as="geometry">
            <mxPoint x="330" y="850" as="sourcePoint" />
            <mxPoint x="380" y="800" as="targetPoint" />
          </mxGeometry>
        </mxCell>
        <mxCell id="deVZLYyUcocXkZ-1fiMZ-22" value="" style="endArrow=classic;html=1;rounded=0;exitX=0.5;exitY=1;exitDx=0;exitDy=0;entryX=0.481;entryY=0.018;entryDx=0;entryDy=0;entryPerimeter=0;" edge="1" parent="1" source="deVZLYyUcocXkZ-1fiMZ-19" target="deVZLYyUcocXkZ-1fiMZ-24">
          <mxGeometry width="50" height="50" relative="1" as="geometry">
            <mxPoint x="405" y="940" as="sourcePoint" />
            <mxPoint x="400" y="790" as="targetPoint" />
          </mxGeometry>
        </mxCell>
        <mxCell id="deVZLYyUcocXkZ-1fiMZ-23" value="开始" style="rounded=1;whiteSpace=wrap;html=1;" vertex="1" parent="1">
          <mxGeometry x="350" y="70" width="115" height="50" as="geometry" />
        </mxCell>
        <mxCell id="deVZLYyUcocXkZ-1fiMZ-24" value="结束" style="rounded=1;whiteSpace=wrap;html=1;" vertex="1" parent="1">
          <mxGeometry x="350" y="770" width="115" height="50" as="geometry" />
        </mxCell>
        <mxCell id="deVZLYyUcocXkZ-1fiMZ-25" value="beforeInit()" style="text;html=1;strokeColor=none;fillColor=none;align=center;verticalAlign=middle;whiteSpace=wrap;rounded=0;" vertex="1" parent="1">
          <mxGeometry x="400" y="123" width="80" height="30" as="geometry" />
        </mxCell>
        <mxCell id="deVZLYyUcocXkZ-1fiMZ-27" value="beforeConfig()" style="text;html=1;strokeColor=none;fillColor=none;align=center;verticalAlign=middle;whiteSpace=wrap;rounded=0;" vertex="1" parent="1">
          <mxGeometry x="419" y="212" width="60" height="30" as="geometry" />
        </mxCell>
        <mxCell id="deVZLYyUcocXkZ-1fiMZ-28" value="beforeStart()" style="text;html=1;strokeColor=none;fillColor=none;align=center;verticalAlign=middle;whiteSpace=wrap;rounded=0;" vertex="1" parent="1">
          <mxGeometry x="414" y="305" width="60" height="30" as="geometry" />
        </mxCell>
        <mxCell id="deVZLYyUcocXkZ-1fiMZ-29" value="beforeReport()" style="text;html=1;strokeColor=none;fillColor=none;align=center;verticalAlign=middle;whiteSpace=wrap;rounded=0;" vertex="1" parent="1">
          <mxGeometry x="418" y="391" width="60" height="30" as="geometry" />
        </mxCell>
        <mxCell id="deVZLYyUcocXkZ-1fiMZ-30" value="beforeBuild()" style="text;html=1;strokeColor=none;fillColor=none;align=center;verticalAlign=middle;whiteSpace=wrap;rounded=0;" vertex="1" parent="1">
          <mxGeometry x="410" y="486" width="60" height="30" as="geometry" />
        </mxCell>
        <mxCell id="deVZLYyUcocXkZ-1fiMZ-32" value="beforeSend()" style="text;html=1;strokeColor=none;fillColor=none;align=center;verticalAlign=middle;whiteSpace=wrap;rounded=0;" vertex="1" parent="1">
          <mxGeometry x="414" y="574" width="60" height="30" as="geometry" />
        </mxCell>
        <mxCell id="deVZLYyUcocXkZ-1fiMZ-34" value="beforeDestory()" style="text;html=1;strokeColor=none;fillColor=none;align=center;verticalAlign=middle;whiteSpace=wrap;rounded=0;" vertex="1" parent="1">
          <mxGeometry x="418" y="660" width="60" height="30" as="geometry" />
        </mxCell>
      </root>
    </mxGraphModel>
  </diagram>
</mxfile>
